<svg width="134" height="76" viewBox="0 0 268 154" fill="none" xmlns="http://www.w3.org/2000/svg">
<path d="M263.44 60.8L247.37 44.73L253.15 38.95L262.85 29.25C266.08 26.02 267.87 21.71 267.87 17.14C267.87 12.57 266.09 8.26 262.85 5.03C259.63 1.78 255.32 0 250.75 0C246.18 0 241.88 1.78 238.64 5.02L223.15 20.51L212.89 10.26L207.07 4.44C201.14 -1.46 191.48 -1.46 185.54 4.44L173.9 16.08C168 22.01 168 31.67 173.9 37.61L189.97 53.68L177.48 66.17C176.93 66.72 176.53 67.41 176.33 68.16L169.62 92.76C169.2 94.31 169.64 95.97 170.77 97.1C171.62 97.95 172.76 98.41 173.93 98.41C174.32 98.41 174.72 98.36 175.11 98.25L199.71 91.54C200.46 91.34 201.15 90.94 201.7 90.39L214.19 77.9L230.26 93.97C233.14 96.85 236.96 98.43 241.03 98.43C245.1 98.43 248.92 96.84 251.8 93.97L263.43 82.34C266.31 79.46 267.89 75.64 267.89 71.57C267.89 67.5 266.3 63.68 263.43 60.8H263.44ZM244.97 11.34C246.51 9.8 248.57 8.94 250.75 8.94C252.93 8.94 254.99 9.79 256.53 11.34C258.07 12.88 258.93 14.94 258.93 17.12C258.93 19.3 258.08 21.36 256.53 22.9L249.99 29.44L238.42 17.87L244.96 11.33L244.97 11.34ZM180.25 31.28C177.81 28.83 177.81 24.83 180.25 22.39L191.87 10.77C194.32 8.33 198.32 8.33 200.76 10.77L203.41 13.42L197.63 19.2C195.88 20.95 195.88 23.78 197.63 25.53C198.5 26.4 199.65 26.84 200.79 26.84C201.93 26.84 203.08 26.4 203.95 25.53L209.73 19.75L216.82 26.84L196.31 47.35L180.25 31.29V31.28ZM196.22 83.22L180.32 87.56L184.66 71.66L232.1 24.22L243.67 35.79L237.89 41.57L196.24 83.22H196.22ZM257.12 76.01L245.49 87.64C244.3 88.83 242.72 89.48 241.05 89.48C239.38 89.48 237.8 88.83 236.61 87.64L220.54 71.57L241.05 51.06L248.14 58.15L242.36 63.93C240.61 65.68 240.61 68.51 242.36 70.26C243.23 71.13 244.38 71.57 245.52 71.57C246.66 71.57 247.81 71.13 248.68 70.26L254.46 64.48L257.11 67.13C258.3 68.32 258.95 69.9 258.95 71.57C258.95 73.24 258.3 74.82 257.11 76.01H257.12Z" fill="currentColor"/>
<path d="M36.2998 127.01C38.0298 124.48 38.8998 120.91 38.8998 116.4C38.8998 110.97 37.5098 106.84 34.7598 104.11C32.0098 101.38 27.6098 100 21.6698 100H9.43976C6.19976 100 3.78977 100.7 2.28977 102.07C0.779766 103.46 0.00976562 105.73 0.00976562 108.82V152.92H9.86977V132.82H18.2398L30.2898 152.92H41.2998L28.5098 131.98C32.0498 131.09 34.6798 129.43 36.3198 127.02L36.2998 127.01ZM29.0798 116.4C29.0798 119.15 28.5298 121.13 27.4298 122.3C26.3498 123.46 24.3998 124.05 21.6598 124.05H9.84977V110.74C9.84977 109.3 10.5498 108.65 12.1298 108.65H21.6598C24.4998 108.65 26.4698 109.22 27.4998 110.34C28.5498 111.48 29.0798 113.51 29.0798 116.4Z" fill="currentColor"/>
<path d="M62.5698 108.381C50.3098 108.381 44.0898 113.841 44.0898 124.611V137.651C44.0898 143.311 45.7398 147.431 48.9798 149.881C52.1798 152.301 57.3998 153.531 64.4798 153.531C69.9698 153.531 74.6898 152.831 78.4998 151.441L78.8298 151.321V142.741L78.1598 142.981C74.4498 144.331 69.8498 145.011 64.4798 145.011C60.4398 145.011 57.5898 144.511 56.0198 143.531C54.4998 142.581 53.7598 140.871 53.7598 138.311V134.581H79.2598L79.3398 134.181C79.8198 131.741 80.0598 128.471 80.0598 124.471C80.0598 113.791 74.1698 108.381 62.5598 108.381H62.5698ZM62.2698 116.621C68.0898 116.621 70.9298 118.581 70.9298 122.621V126.701H53.7698V122.621C53.7698 118.581 56.5498 116.621 62.2798 116.621H62.2698Z" fill="currentColor"/>
<path d="M108.77 130.38L98.48 123.84C97.11 123.01 96.18 122.31 95.71 121.76C95.29 121.26 95.08 120.56 95.08 119.69C95.08 118.6 95.49 117.91 96.38 117.51C97.37 117.06 99.31 116.84 102.12 116.84C106.77 116.84 111.05 117.57 114.85 119.01L115.53 119.27V110.68L115.2 110.56C111.28 109.12 106.91 108.4 102.19 108.4C96.53 108.4 92.33 109.33 89.69 111.16C86.99 113.03 85.63 115.93 85.63 119.77C85.63 122.39 86.29 124.62 87.6 126.41C88.88 128.17 90.84 129.87 93.41 131.45L103.85 137.96C105.48 138.96 106.58 139.76 107.13 140.33C107.62 140.84 107.86 141.47 107.86 142.26C107.86 143.37 107.41 144.08 106.44 144.49C105.36 144.95 103.34 145.18 100.44 145.18C97.01 145.18 93.51 144.83 90.06 144.15L85.04 142.83V151.37L85.39 151.48C89.92 152.86 94.8 153.56 99.91 153.56C105.86 153.56 110.28 152.63 113.04 150.8C115.87 148.93 117.3 146 117.3 142.11C117.3 139.56 116.61 137.4 115.26 135.7C113.94 134.04 111.76 132.26 108.78 130.4L108.77 130.38Z" fill="currentColor"/>
<path d="M150.25 139.02C150.25 140.54 150.02 141.72 149.58 142.54C149.16 143.32 148.34 143.93 147.15 144.35C145.9 144.79 144.07 145.02 141.71 145.02C138.28 145.02 135.94 144.56 134.73 143.65C133.57 142.78 132.98 141.22 132.98 139.02V109.08H123.27V139.02C123.27 148.65 129.47 153.54 141.71 153.54C147.9 153.54 152.52 152.34 155.44 149.97C158.39 147.57 159.88 143.89 159.88 139.02V109.08H150.25V139.02Z" fill="currentColor"/>
<path d="M221.28 111.961C218.56 109.581 214.25 108.381 208.47 108.381C202.69 108.381 198.79 109.971 196.27 113.121C193.75 109.981 189.62 108.381 183.96 108.381C172.55 108.381 166.76 113.291 166.76 122.971V152.911H176.47V122.971C176.47 120.781 176.99 119.221 178.02 118.331C179.07 117.421 181.07 116.971 183.96 116.971C186.85 116.971 188.82 117.431 189.88 118.351C190.92 119.251 191.45 120.801 191.45 122.971V152.911H200.82V122.971C200.82 120.761 201.34 119.191 202.35 118.311C203.39 117.421 205.44 116.961 208.46 116.961C211.48 116.961 213.29 117.421 214.3 118.321C215.3 119.211 215.8 120.771 215.8 122.961V152.901H225.39V122.961C225.39 118.051 224 114.351 221.26 111.961H221.28Z" fill="currentColor"/>
<path d="M250.2 108.381C237.94 108.381 231.73 113.841 231.73 124.611V137.651C231.73 143.311 233.37 147.431 236.62 149.881C239.82 152.301 245.04 153.531 252.12 153.531C257.61 153.531 262.33 152.831 266.14 151.441L266.47 151.321V142.741L265.8 142.981C262.09 144.331 257.49 145.011 252.12 145.011C248.08 145.011 245.23 144.511 243.66 143.531C242.14 142.581 241.4 140.871 241.4 138.311V134.581H266.9L266.98 134.181C267.46 131.731 267.7 128.471 267.7 124.471C267.7 113.791 261.81 108.381 250.2 108.381ZM249.9 116.621C255.73 116.621 258.56 118.581 258.56 122.621V126.701H241.4V122.621C241.4 118.581 244.18 116.621 249.91 116.621H249.9Z" fill="currentColor"/>
<path d="M9.43 83.3306H35.67V74.6706H12.13C10.56 74.6706 9.85 74.0306 9.85 72.5806V60.5606H32.59V51.8306H9.86V41.1406C9.86 39.7006 10.56 39.0506 12.14 39.0506H35.68V30.3906H9.43C6.19 30.3906 3.78 31.0906 2.28 32.4606C0.77 33.8506 0 36.1206 0 39.2106V74.4906C0 77.5806 0.77 79.8506 2.28 81.2406C3.78 82.6206 6.19 83.3106 9.43 83.3106V83.3306Z" fill="currentColor"/>
<path d="M45.2001 80.7908C48.0501 82.9008 52.5301 83.9608 58.5201 83.9608C64.5101 83.9608 69.0201 82.8708 71.8401 80.7108C74.7101 78.5208 76.1601 75.1408 76.1601 70.6608V52.9708C76.1601 47.9208 74.5301 44.2508 71.3101 42.0508C68.1501 39.8908 63.2801 38.8008 56.8201 38.8008C52.0101 38.8008 48.1601 39.2408 45.3801 40.1208L45.0301 40.2308V48.5408L45.7001 48.3108C48.2401 47.4208 52.2001 46.9708 57.4701 46.9708C60.7801 46.9708 63.1701 47.4308 64.5701 48.3208C65.9001 49.1708 66.5701 50.8308 66.5701 53.2508V56.9108H57.8401C52.2701 56.9108 48.0101 58.0108 45.1701 60.2008C42.2901 62.4108 40.8301 65.9508 40.8301 70.7408C40.8301 75.2708 42.3001 78.6508 45.2001 80.7908ZM66.5701 70.1808C66.5701 72.4108 65.9501 73.9408 64.7401 74.7208C63.4501 75.5508 61.3101 75.9708 58.3701 75.9708C55.4301 75.9708 53.4801 75.5608 52.2201 74.7608C51.0101 73.9908 50.4201 72.5608 50.4201 70.3908C50.4201 68.3708 50.9701 66.9208 52.0701 66.0608C53.2001 65.1808 55.1201 64.7308 57.7701 64.7308H66.5801V70.1708L66.5701 70.1808Z" fill="currentColor"/>
<path d="M109.32 81.2101C112.15 79.3401 113.58 76.4101 113.58 72.5201C113.58 69.9701 112.89 67.8101 111.54 66.1101C110.22 64.4501 108.04 62.6701 105.06 60.8101L94.7701 54.2701C93.4001 53.4401 92.4701 52.7401 92.0001 52.1901C91.5801 51.6901 91.3701 50.9901 91.3701 50.1201C91.3701 49.0301 91.7801 48.3301 92.6701 47.9401C93.6601 47.4901 95.6001 47.2701 98.4101 47.2701C103.05 47.2701 107.34 48.0001 111.14 49.4401L111.82 49.7001V41.1101L111.49 40.9901C107.57 39.5501 103.2 38.8301 98.4801 38.8301C92.8201 38.8301 88.6201 39.7601 85.9801 41.5901C83.2901 43.4601 81.9201 46.3601 81.9201 50.2001C81.9201 52.8101 82.5801 55.0501 83.8901 56.8401C85.1701 58.6001 87.1301 60.3001 89.7001 61.8801L100.14 68.3801C101.77 69.3801 102.87 70.1701 103.42 70.7501C103.91 71.2701 104.15 71.9001 104.15 72.6801C104.15 73.7901 103.7 74.5001 102.73 74.9101C101.65 75.3701 99.6301 75.6001 96.7301 75.6001C93.3001 75.6001 89.8001 75.2501 86.3501 74.5701L81.3301 73.2501V81.7901L81.6801 81.9001C86.2101 83.2801 91.0901 83.9801 96.2001 83.9801C102.15 83.9801 106.57 83.0501 109.33 81.2201L109.32 81.2101Z" fill="currentColor"/>
<path d="M127.14 80.5598C128.53 82.3098 130.99 83.1998 134.44 83.1998C135.66 83.1998 136.62 83.1498 137.33 83.0598C135.73 87.9298 131.76 90.2798 125.21 90.1998H124.56L126.58 98.1598H126.97C127.02 98.1598 127.07 98.1598 127.12 98.1598C132.74 98.1598 137.26 96.8898 140.56 94.3898C143.89 91.8598 146.16 87.9598 147.31 82.8098L157.28 39.5098H147.47L140.25 72.2698C139.98 73.4398 139.61 74.2398 139.15 74.6498C138.71 75.0398 138.06 75.2398 137.21 75.2398C135.61 75.2398 134.89 74.9498 134.56 74.7098C134.24 74.4698 133.79 73.8598 133.46 72.2798L126.17 39.5098H116.29L123.82 72.3598C124.75 76.2198 125.83 78.8998 127.14 80.5598Z" fill="currentColor"/>
</svg>
